<svg xmlns="http://www.w3.org/2000/svg" version="1.1" viewBox="174.41 169.52 419.44 404.06"> <g fill="#000">  <path d="m434.78 314.77c-0.30469-0.55078-0.6875-0.98047-1.0117-1.4922-0.82031-1.7305-1.9336-3.3438-3.1875-4.8398-1.5781-2.8984-3.6055-5.3672-6.2891-7.1094-12.004-12.73-40.355-7.832-54.582-7.3594-0.54297 0.019531-0.98047 0.18359-1.4102 0.35156-0.77344 0.24609-1.5391 0.51172-2.293 0.85156-0.082031 0.09375-0.18359 0.17578-0.23828 0.28906-0.1875-0.019531-0.37109 0.082031-0.55859 0.125-0.39453 0.19922-0.78516 0.38672-1.168 0.60547-0.75781 0.73047-1.1836 1.8867-0.5625 3.0312 8.9492 16.484 24.559 12.332 40.355 15.613 29.219 6.0703 18.848 49.008 15.527 69.059-0.35547 2.1602 2.4844 3.875 3.9336 1.918 14.379-19.449 24.059-48.48 11.484-71.043z"></path>  <path d="m366.68 274.76c-4.3477-0.64453-8.9023 0.44531-13.406 1.2656-0.40234 0.23047-0.82031 0.42578-1.207 0.6875-13.273 5.4336-23.043 20.344-27.211 33.129-5.1602 15.832-5.0039 31.559-4.3438 47.543-0.003907 0.023438-0.007813 0.042969-0.015625 0.066407-0.09375 0.44922-0.042969 0.82812 0.066406 1.1758 0.003906 0.11328 0.007812 0.22656 0.015625 0.34766 0.03125 0.16406 0.023437 0.33203 0.0625 0.50391 0.097656 0.40234 0.085937 0.77344 0.003906 1.1016 0.11719 2.7031 0.23828 5.4102 0.34766 8.1328-0.023438 0.10937-0.066407 0.20703-0.097657 0.31641-0.003906 0.097656-0.027343 0.19922-0.039062 0.29688-0.039063 3.6055-0.25391 7.1133 0.51953 10.664 0.58203 2.6602 4.0195 1.5078 4.2812-0.80859-0.77734-3.2539-0.28125-6.6836-0.15625-10.066-0.18359-1.6562 0.042969-3.4141 0.31641-5.1797 0.125-5.75 0.59375-11.246 2.4844-16.859 1.0234-3.0312 1.8359-5.9453 2.1133-9.0156 0.015626-0.015625 0.019532-0.03125 0.03125-0.046875 0.28906-3.5547 1.1875-7.0703 2.7148-10.281 0.39453-1.2656 0.91016-2.4805 1.5156-3.6602 1.2266-2.7891 3.1016-5.4727 5.4609-7.375 1.9414-2.5 3.9297-4.9102 5.7266-7.1055 7.5664-9.2383 13.805-19.418 21.703-28.414 1.9375-2.2031 1.2266-4.7422-0.42578-6.2305-0.14844-0.074218-0.30469-0.13281-0.46094-0.1875z"></path>  <path d="m510.11 277.89c-2.6562-9.9609-7.5742-17.23-5.9336-27.762 0.64062-4.0977 1.7422-9.1953-1.7695-12.535-18.145-17.234-32.789-22.492-55.812-31.742-46.762-18.793-99.34-7.1211-138.96 21.992-18.156 13.34-60.09 52.992-38.961 77.469 1.8906 2.1875 5.125 2.8633 7.1602 0.32031 0.78906-0.98438 1.5781-1.9766 2.3672-2.9609 0.039063-0.046875 0.042969-0.097657 0.074219-0.14844 0.69922-0.26562 1.4062-0.64844 2.1133-1.2578 37.828-32.832 102.8-87.352 152.68-49.434 21.23 16.145 45.109 48.652 54.172 73.539 9.1719 25.18-1.8242 49.715-9.9844 73.648-0.30469 5.0195-1.7578 10.059-3.9688 14.734v0.003906c-1.4688 3.5391-2.9414 7.0664-3.7109 10.824-0.18359 0.45312-0.28125 0.89453-0.30469 1.3516-0.007812 0.0625-0.027343 0.10937-0.039062 0.17187-0.015625 0.089844 0.019531 0.15234 0.015625 0.24219 0.003906 0.22656-0.007813 0.45312 0.03125 0.67578 0.097656 2.582 2.0938 4.125 4.1719 4.3438 2.3359-5.4883 4.7578-11.203 8.8281-15.402 4.0078-4.1289 8.0898-10.363 11.078-16.07 0.58203-1.1641 1.1758-2.3203 1.7383-3.5 0.007812-0.027344 0.027344-0.058594 0.039062-0.082031l0.003907-0.003906c17.371-36.449 25.348-79.465 14.969-118.42z"></path>  <path d="m588.64 348.9c-5.8867-21.254-21.102-40.832-32.785-59.156-5.4688-8.5703-15.449-18.402-25.828-22.684-1.3672-0.35156-2.7383-0.68359-4.125-0.86719-0.046875-0.003906-0.09375-0.015624-0.13672-0.023437-1.1211 0-2.2539-0.019531-3.3945-0.13281-1.293-0.12891-2.4922-0.64453-3.6797-1.1445-0.33984 0.007813-0.6875 0.019531-1.0273 0.027344-0.24609 0.082031-0.49219 0.17188-0.73047 0.26953-1.8125 1.375-2.8906 3.9062-1.4102 6.3711 17.684 29.352 6.1367 60.859 6.332 92.461 0.070312 11.242 11.48 22.895 13.277 34.426 1.3164 8.4492 2.832 16.074 8.2109 22.883 1.7031 2.1562 3.9609 2.4258 6.293 1.1367 15.559-8.5547 32.41-14.66 41.164-31.133 6.4258-12.078 1.2227-30.234-2.1602-42.434z"></path>  <path d="m524.98 385.93c0.042969-0.69922-0.22656-1.1562-0.57812-1.5-1.9023 0.023438-3.7227 0.35547-5.3555 1.6289-0.30469 0.23828-0.5625 0.49609-0.81641 0.75781-0.4375 0.78516-0.83203 1.5859-1.2461 2.4336-0.26953 0.55078-0.56641 1.0742-0.85547 1.6133-0.13672 0.36328-0.25391 0.74219-0.41016 1.1016-1.1289 4.7227-3.8438 8.9727-7.0508 12.559-0.003906 0.007813-0.015625 0.007813-0.019531 0.007813-1.7578 2.7031-3.543 5.3984-5.2383 8.125-6.375 10.234-12.551 19.691-20.422 28.953-5.9688 7.0273-12.516 13.809-19.711 19.633-4.9531 5.8203-10.688 10.574-17.926 13.738-4.5859 2.0078-9.1211 1.3516-13.645 0.25391-0.69531-0.085938-1.3984-0.125-2.0898-0.28516-1.2227-0.22266-2.4219-0.5625-3.6094-0.98047-2.5625-0.18359-5.1328-0.60938-7.6797-0.96484-0.53125 0.82422-0.65234 1.8984 0.22656 2.7695 5.375 5.3047 12.016 9.2578 19.18 11.488 0.24609 0.097657 0.49219 0.21484 0.73438 0.31641 0.10547 0.0625 0.23047 0.097656 0.34766 0.15234 1.375 0.56641 2.7617 1.0977 4.1836 1.5234 3.3594 2.2969 6.6875 4.625 9.9688 6.9102 6.4531 4.5039 12.195 11.016 19.707 13.844 12.512 4.6992 21.828-7.9297 28.594-16.742 4.207-5.4727 7.9219-11.312 11.688-17.09 3.5234-5.4219 5.2891-11.305 7.375-17.121 1.2227-2.6133 2.3359-5.2852 3.3477-8.0078 0.33203-0.67188 0.65234-1.3438 1.0273-2.0039 12.348-21.77-1.0664-40.18 0.27344-63.113z"></path>  <path d="m386.49 399.73c-23.324-1.9375-37.695-22.094-36.641-44.676 0.046875-1.0664-0.47656-1.6562-1.1797-1.8867-2.2773 0.47656-3.6172 2.0703-4.9805 3.7422-0.26562 0.47266-0.49609 0.95703-0.76172 1.4258-4.3516 15.074-5.7109 32.445 6.0195 44.652 9.7461 10.148 28.359 10.375 38.402 0.98047 1.2305-1.1602 1.418-4.0508-0.85938-4.2383z"></path>  <path d="m394.45 351.56c-2.4219-4.1094-8.5234-5.9258-12.715-7.3594-4.4102-1.5117-10.758-3.7188-15.371-1.7773-8.3789 3.5234-14.051 20.902-7.2344 27.68 1.8594 1.8516 4.2188-0.69531 3.4336-2.7383 0-0.039062 0.015625-0.066406 0.007812-0.10547-0.027343-0.35937-0.058593-0.71875-0.085937-1.0781 0.39453-1.5898 0.98828-3.125 1.5234-4.6758 5.5117-9.0469 18.004-14.09 27.078-6.7969 2.1289 1.7148 4.6562-0.95312 3.3633-3.1484z"></path>  <path d="m402.56 359.1c-0.003906-0.027344-0.003906-0.058594-0.003906-0.085937-0.39844-0.67188-0.76563-1.3633-1.1992-2.0508-0.027344-0.015626-0.046875-0.046876-0.074219-0.0625-0.40234-0.57813-0.82422-1.1367-1.3008-1.6445-2.0664-2.1797-4.9492 1.5078-2.9688 3.5977 0.40234 0.42578 0.75391 0.88672 1.0781 1.3633 0.22266 3.4375-1.1094 7.3867-3.3047 11.008-0.066406 0.050782-0.12891 0.10547-0.19531 0.15625-0.28125 0.52734-0.60547 1-0.98438 1.4648-0.003907 0-0.007813 0.003906-0.007813 0.007812-0.097656 0.11328-0.21875 0.19922-0.3125 0.30859-0.40234 0.52734-0.88281 1.0039-1.4062 1.4531-1.0898 1.3516-2.1836 2.7031-3.4062 3.9297-5.7812 4.6758-12.914 6.0742-17.703-0.94531-1.1641-1.7109-3.7305-1.0117-4.0977 0.95312-2.5625 13.754 16.07 17.684 25.824 13.164 10.262-4.7461 15.051-22.18 10.062-32.617z"></path>  <path d="m417.8 356.23c-2.5859-12.125-3.7695-24.82-14.02-33.141-7.4844-6.082-19.379-0.49219-27.535 0.58203-3.5625 0.46875-7.1328 1.0625-10.602 1.8359-3.4609 0.12891-7.4258 1.4492-11.387 3.5664-7.0039 2.9883-12.836 7.4258-16.281 14.145-1.3086 1.8359-2.2695 3.7031-3.0469 5.5586-0.22266 1.0469-0.40234 2.0977-0.55078 3.168 0.089844 0.14062 0.19531 0.26562 0.3125 0.37891 1.3203 0.023437 2.668 0.082031 3.8555-0.57422 0.15625-0.085937 0.29688-0.082031 0.44922-0.11328 0.46875-0.35156 0.98047-0.63281 1.4688-0.95703 0.11719-0.10547 0.24609-0.20703 0.36328-0.31641 8.8477-11.738 25.934-16.574 40.695-18.215 12.867 4.6094 22.621 18.473 32.656 26.699 1.9805 1.625 4.0742-0.50391 3.6211-2.6172z"></path>  <path d="m380.65 361.36c-1.7656-5.9609-9.293-2.6562-12.258 1.1289-1.6719 1.8711-2.293 5.0586-2.9023 7.1953-0.4375 1.5117 1.0195 2.793 2.4102 2.7461 0.39453-0.015626 0.69922-0.13281 1.0664-0.1875 0.35547 0.26562 0.77344 0.46875 1.3008 0.48828 2.6523 0.097656 5.3555-1.9102 7.2109-3.5898 2.2461-2.0312 4.0977-4.6719 3.1719-7.7812z"></path>  <path d="m287.73 175.55c-11.777 4.5742-21.578 11.883-29.711 20.828-13.621 13.004-22.055 30.82-27.828 48.746-0.19922 0.60938-0.27344 1.2031-0.3125 1.7812-0.42969 1.0977-0.81641 2.2148-1.1094 3.3984-1.5 4.9023-2.2773 9.9727-2.5469 15.117-4.6602 25.422-3.2422 52.203 1.3828 77.316 0.44141 2.3867 0.9375 4.7969 1.4648 7.2109 0.59375 3.7852 1.375 7.5586 2.6172 11.355 0.19922 0.60938 0.46875 1.1953 0.69531 1.793 6.4648 22.387 17.312 44.246 35.574 58.508 1.7461 1.3633 4.5625-0.40625 3.6172-2.625-5.375-12.594-6.7734-26.137-8.5586-39.59-1.5547-11.723-4.3672-23.051-7.0938-34.535-3.9453-16.637-8.1992-34.039-8.2148-51.207-0.54297-3.1367-0.57422-6.3555-0.5625-9.5742-0.33203-9.0586 9.0547-25.531 15.395-35.594 0.97656-1.6641 1.9023-3.3477 2.7227-5.0898 8.7852-11.301 19.781-21.223 30.609-29.645 7.5742-5.8906 14.02-9.2148 25.074-16.02 8.4805-4.6406 60.18-9.375 62.883-13.223-8.2227-14.707-66.918-20.277-96.098-8.9531z"></path>  <path d="m348.18 556.43c0.23047-2.3164-0.039063-4.6445-1.0547-6.8086-0.37109-0.78125-0.74219-1.5977-1.1172-2.4023-5.5273-19.289-16.867-38.16-33.645-49.434-10.641-7.1562-21.883-12.883-31.891-21.059-10.766-8.8047-19.773-19.625-27.828-30.891-34.348-48.035-45.812-111.03-40.168-168.87 0.14844-1.5-1.25-3.5156-2.9844-2.6055-5.043 2.6328-9.9453 5.4727-14.723 8.5664-0.070313 0.046875-0.074219 0.11719-0.14063 0.16406-2.0977 1.3828-3.9219 3.1016-5.1953 5.3906-2.3477 4.2148-4.7539 8.8984-6.0938 13.621-6.8594 16.125-8.2461 35.148-8.7852 52-0.49609 15.457 0.24609 30.863 2.6445 46.141 3.375 21.527 8.0781 42.684-0.94141 63.562-0.62109 1.4453 0.12891 2.918 1.6133 3.3203 7.6055 2.0586 14.719 12.961 19.531 18.547 5.1758 6.0195 10.207 12.199 15.875 17.77 17.375 17.059 40.828 30.23 61.613 42.641 12.598 7.5234 25.383 14.645 38.797 20.609 7.3125 3.2578 16.363 7.043 24.535 6.8867 10.41-0.21094 11.246-8.8906 9.957-17.148z"></path>  <path d="m436.2 410.36c-34.023 7.1445-92.473 24.242-116.7-10.68-10.754-15.504-13.805-36.461-14.844-54.836-0.99609-17.586 0.35156-38.586 10.301-53.762 1.582-2.4102-1.3203-5.3438-3.418-3.0352-9.125 10.051-18.527 19.848-27.359 30.152-1.0078 1.543-2.1797 3.0078-3.082 4.5781-0.60547 1.5391-1.0273 3.0977-1.0859 4.7305 3.2812 14.898 8.6836 29.176 12.359 43.992 4.7969 19.348 0.92969 39.52 2.0469 59.18 0.058593 0.98828 0.83984 1.9414 1.8359 2.0898 26.738 3.9727 53.586 7.5117 80.68 7.0859 20.789-0.32031 53.23-2.8086 61.48-26.156 0.50391-1.4141-0.28516-3.7461-2.2188-3.3398z"></path>  <path d="m406.35 475.32c-5.4688 0.60156-10.754 0.33984-15.914-0.44531-6.7344-1.5625-13.352-3.4531-19.871-5.6055-18.75-7.4453-36.602-19.203-56.438-22.996 0.046875-0.097657 0.097656-0.19531 0.15234-0.28516-1.3242 0.082031-2.6562 0.097657-3.9844 0.12891-1.918 0.57812-3.5195 1.8594-5.2812 2.9727 0 0.003906 0 0.015625 0.003906 0.015625-0.03125 0.015625-0.066406 0.027343-0.097656 0.039062-0.0625 0.042969-0.125 0.085938-0.19531 0.125-0.33594 0.21484-0.67188 0.3125-0.98828 0.34766-6.7656 2.707-16.031 0.71484-23.082 0.57812-1.6328-0.03125-2.2344 1.918-1.9219 3.1758 5.8281 23.488 37.238 31.82 57.684 35.617 0.37109 0.070313 0.77734 0.13281 1.1562 0.19922 4.9531 1.1602 9.7148 1.8281 14.316 2.0352 19.531 2.0117 42.57 0.97266 55.949-11.648 1.5234-1.4375 1.0586-4.5391-1.4883-4.2539z"></path>  <path d="m567.28 419.48c-10.953 11.566-23.508 19.473-32.93 32.586-8.5391 11.883-12.305 27.191-18.906 40.18-0.77344 1.5195-1.5781 3.0312-2.4102 4.5195-1.3633 2.0898-2.6836 4.207-3.875 6.375-4.7461 7.207-10.473 13.652-17.949 18.324-2.9219 1.8281-6.168 3.0508-9.5 3.9688-1.1445 0.60156-2.3633 1.0078-3.6094 1.3516-1.8359 0.85547-3.7617 1.3906-5.7695 1.6367-1.5312 0.49609-3.1133 0.88672-4.8867 0.91797-1.7539 0.039062-3.2344-0.15625-4.6602-0.44922-0.59375-0.050781-1.1758-0.066407-1.7695-0.20312-0.050781-0.015625-0.097657-0.039063-0.14844-0.050782-0.1875-0.019531-0.37891-0.050781-0.57422-0.066406-0.23828-0.019531-0.53516-0.070312-0.82812-0.13672h-0.046876c-0.33594 0.003906-0.625-0.023438-0.83984-0.097657-2.1562-0.40234-4.2383-1.2188-6.3828-2.2773-1.8906-0.93359-3.9766-1.7305-5.7812-2.8164-0.0625-0.039062-0.13281-0.097656-0.19531-0.14062-1.0977-0.44141-2.1914-0.89453-3.2031-1.4727-0.40234-0.23047-0.77734-0.54297-1.1562-0.84375-0.29297-0.14062-0.60547-0.26562-0.89062-0.42969-0.26562-0.15625-0.49219-0.35156-0.73828-0.52734-0.11719-0.070313-0.26172-0.10938-0.37109-0.1875-10.602-4.6094-23.098-11.527-25.312-12.578-19.93-9.4805-42.453-5.7344-63.602-4.332-1.875 0.11719-2.4492 2.2695-1.6797 3.6953 1.7539 3.2578 3.3672 4.7539 6.4609 6.4883 0.80469 4.1406 2.0078 8.3906 3.6055 12.559 2.6523 14.652 8.2109 29.301 22.988 33.883 5.0312 1.5625 10.754 0.29297 15.742-0.55859 2.543-0.4375 5.0664-0.95312 7.5977-1.4336 5.1797-0.42578 10.363-1.4766 15.289-3.0938 2.1836-0.47266 4.375-0.91797 6.5586-1.4062 17.281-3.8203 34.426-8.293 51.516-12.871 23.91-6.4062 56.113-10.844 71.078-33.012 17.656-26.145-3.3633-61.074 20.602-84.457 2.0547-2.1875-1.2812-5.1367-3.4219-3.043z"></path>  <path d="m468.61 329.26c-1.8789-6.5195-5.1328-12.594-9.0469-18.383-2.0234-4.2539-4.3711-8.2891-7.0664-12.086v-0.003906c-1.2734-1.25-2.3594-2.6992-3.2773-4.2461-3.8711-4.7461-8.2969-9.1484-13.355-13.176-0.046875-0.058593-0.097656-0.11719-0.14062-0.17969-0.85156-0.64453-1.6719-1.3359-2.4609-2.0742-0.13281-0.03125-0.26953-0.082031-0.40625-0.074219-0.50391-0.37109-0.95703-0.77344-1.4766-1.1367-0.79688-0.5625-1.6641-1.0859-2.4727-1.6445-0.38672-0.12891-0.70703-0.33594-0.9375-0.62109-3.9883-2.6602-8.1328-5.2461-12.496-7.6016-8.6914-5.8867-17.988-10.531-28.27-12.664-3.4922-0.24219-6.9727-0.64453-10.457-0.98047-0.88672-0.050781-1.7656-0.10547-2.6484-0.15625-0.1875 0.039062-0.38281 0.066406-0.53125 0.15625-0.82031-0.074219-1.6328-0.046875-2.4531-0.089844-1.8125 0.17578-3.582 0.53125-5.3164 1-1.0508 0.61719-2.0703 1.2109-3.1055 1.7305-0.25 1.3398 0.48828 2.9492 2.25 2.918 4.793-0.089843 9.4414 0.81641 14.027 2.0664 2.1797 0.14844 4.3477 0.40625 6.5117 0.74219 6.2852 0.53516 12.801 1.5195 17.418 5.1445 0.53125 0.26953 1.0547 0.55469 1.5586 0.87109 2.6562 1.043 5.1758 2.4375 7.4297 4.4648 2.8086 1.9648 5.5547 4.0586 8.1406 6.4258 1.4102 1.4453 2.793 2.918 4.1875 4.3516 1.293 1.332 2.6758 2.8281 4.1406 4.3555 25.129 29.668 36.023 77 21.391 107.93-0.49219 1.0469-0.14844 2.6797 1.043 3.1289 20.098 7.6406 19.648-23.859 19.75-35.836 0.078126-11.258 1.2031-23.457-1.9297-34.336z"></path> </g></svg>